<svg data-v-fde0c5aa="" xmlns="http://www.w3.org/2000/svg" viewBox="0 0 300 300" class="iconAbove"><!----><defs data-v-fde0c5aa=""><!----></defs><rect data-v-fde0c5aa="" fill="transparent" x="0" y="0" width="300px" height="300px" class="logo-background-square"></rect><defs data-v-fde0c5aa=""><!----></defs><g data-v-fde0c5aa="" id="3e7d12e4-b1da-4b5b-a82a-b07b09a493a4" fill="#000000" transform="matrix(5.104877594801002,0,0,5.104877594801002,25.160219569298786,173.7275705952193)"><path d="M2.45 13.65L2.45 13.65Q1.50 13.65 0.92 13.09L0.92 13.09L0.92 13.09Q0.34 12.53 0.34 11.66L0.34 11.66L0.34 11.66Q0.34 10.36 1.57 9.80L1.57 9.80L1.57 9.80Q2.80 9.24 4.44 9.21L4.44 9.21L4.44 9.21Q4.44 8.29 4.08 7.96L4.08 7.96L4.08 7.96Q3.72 7.63 2.94 7.63L2.94 7.63L2.94 7.63Q2.51 7.63 2.07 7.76L2.07 7.76L2.07 7.76Q1.64 7.90 1.13 8.25L1.13 8.25L0.95 7.22L0.95 7.22Q1.37 6.90 1.99 6.71L1.99 6.71L1.99 6.71Q2.60 6.51 3.28 6.51L3.28 6.51L3.28 6.51Q4.16 6.51 4.68 6.82L4.68 6.82L4.68 6.82Q5.21 7.13 5.45 7.84L5.45 7.84L5.45 7.84Q5.70 8.55 5.70 9.80L5.70 9.80L5.70 11.20L5.70 11.20Q5.70 11.76 5.75 12.05L5.75 12.05L5.75 12.05Q5.80 12.33 5.96 12.49L5.96 12.49L5.96 12.49Q6.13 12.64 6.48 12.64L6.48 12.64L6.61 12.64L6.41 13.65L6.31 13.65L6.31 13.65Q5.73 13.65 5.39 13.54L5.39 13.54L5.39 13.54Q5.05 13.43 4.88 13.22L4.88 13.22L4.88 13.22Q4.70 13.01 4.55 12.64L4.55 12.64L4.55 12.64Q3.68 13.65 2.45 13.65L2.45 13.65ZM2.69 12.64L2.69 12.64Q3.19 12.64 3.66 12.39L3.66 12.39L3.66 12.39Q4.13 12.14 4.44 11.72L4.44 11.72L4.44 10.08L4.44 10.08Q2.93 10.14 2.27 10.48L2.27 10.48L2.27 10.48Q1.62 10.82 1.62 11.59L1.62 11.59L1.62 11.59Q1.62 12.12 1.91 12.38L1.91 12.38L1.91 12.38Q2.20 12.64 2.69 12.64L2.69 12.64ZM11.06 6.51L11.06 6.51Q11.97 6.51 12.65 6.98L12.65 6.98L12.65 6.98Q13.33 7.45 13.69 8.26L13.69 8.26L13.69 8.26Q14.06 9.07 14.06 10.08L14.06 10.08L14.06 10.08Q14.06 11.10 13.71 11.91L13.71 11.91L13.71 11.91Q13.37 12.71 12.70 13.18L12.70 13.18L12.70 13.18Q12.03 13.65 11.06 13.65L11.06 13.65L11.06 13.65Q10.35 13.65 9.76 13.40L9.76 13.40L9.76 13.40Q9.17 13.15 8.83 12.67L8.83 12.67L8.83 16.90L7.57 16.90L7.57 6.65L8.55 6.65L8.69 7.60L8.69 7.60Q9.56 6.51 11.06 6.51L11.06 6.51ZM10.82 12.53L10.82 12.53Q11.73 12.53 12.25 11.88L12.25 11.88L12.25 11.88Q12.77 11.23 12.77 10.08L12.77 10.08L12.77 10.08Q12.77 8.93 12.25 8.28L12.25 8.28L12.25 8.28Q11.73 7.63 10.82 7.63L10.82 7.63L10.82 7.63Q9.93 7.63 9.34 8.26L9.34 8.26L9.34 8.26Q8.76 8.89 8.76 10.08L8.76 10.08L8.76 10.08Q8.76 11.31 9.34 11.92L9.34 11.92L9.34 11.92Q9.91 12.53 10.82 12.53L10.82 12.53ZM18.86 6.51L18.86 6.51Q19.77 6.51 20.45 6.98L20.45 6.98L20.45 6.98Q21.13 7.45 21.49 8.26L21.49 8.26L21.49 8.26Q21.85 9.07 21.85 10.08L21.85 10.08L21.85 10.08Q21.85 11.10 21.51 11.91L21.51 11.91L21.51 11.91Q21.17 12.71 20.50 13.18L20.50 13.18L20.50 13.18Q19.82 13.65 18.86 13.65L18.86 13.65L18.86 13.65Q18.14 13.65 17.56 13.40L17.56 13.40L17.56 13.40Q16.97 13.15 16.63 12.67L16.63 12.67L16.63 16.90L15.37 16.90L15.37 6.65L16.35 6.65L16.49 7.60L16.49 7.60Q17.36 6.51 18.86 6.51L18.86 6.51ZM18.62 12.53L18.62 12.53Q19.53 12.53 20.05 11.88L20.05 11.88L20.05 11.88Q20.57 11.23 20.57 10.08L20.57 10.08L20.57 10.08Q20.57 8.93 20.05 8.28L20.05 8.28L20.05 8.28Q19.53 7.63 18.62 7.63L18.62 7.63L18.62 7.63Q17.72 7.63 17.14 8.26L17.14 8.26L17.14 8.26Q16.56 8.89 16.56 10.08L16.56 10.08L16.56 10.08Q16.56 11.31 17.14 11.92L17.14 11.92L17.14 11.92Q17.71 12.53 18.62 12.53L18.62 12.53ZM23.17 13.51L23.17 6.65L24.21 6.65L24.36 7.78L24.36 7.78Q24.89 7.13 25.38 6.82L25.38 6.82L25.38 6.82Q25.86 6.51 26.39 6.51L26.39 6.51L26.39 6.51Q26.56 6.51 26.71 6.55L26.71 6.55L26.59 7.94L26.59 7.94Q26.40 7.90 26.17 7.90L26.17 7.90L26.17 7.90Q25.65 7.90 25.19 8.13L25.19 8.13L25.19 8.13Q24.72 8.36 24.51 8.67L24.51 8.67L24.51 13.51L23.17 13.51ZM30.88 13.65L30.88 13.65Q29.71 13.65 28.88 13.17L28.88 13.17L28.88 13.17Q28.04 12.68 27.61 11.86L27.61 11.86L27.61 11.86Q27.17 11.03 27.17 10.02L27.17 10.02L27.17 10.02Q27.17 9.06 27.57 8.25L27.57 8.25L27.57 8.25Q27.97 7.45 28.74 6.98L28.74 6.98L28.74 6.98Q29.50 6.51 30.53 6.51L30.53 6.51L30.53 6.51Q31.85 6.51 32.67 7.28L32.67 7.28L32.67 7.28Q33.49 8.05 33.49 9.41L33.49 9.41L33.49 9.41Q33.49 9.76 33.43 10.08L33.43 10.08L28.46 10.08L28.46 10.08Q28.59 11.41 29.27 11.97L29.27 11.97L29.27 11.97Q29.96 12.53 31.04 12.53L31.04 12.53L31.04 12.53Q32.12 12.53 33.01 12.12L33.01 12.12L33.18 13.12L33.18 13.12Q31.99 13.65 30.88 13.65L30.88 13.65ZM28.57 9.21L32.19 9.21L32.19 9.21Q32.19 8.47 31.77 8.05L31.77 8.05L31.77 8.05Q31.35 7.63 30.51 7.63L30.51 7.63L30.51 7.63Q29.69 7.63 29.23 8.03L29.23 8.03L29.23 8.03Q28.77 8.43 28.57 9.21L28.57 9.21ZM38.15 6.51L38.15 6.51Q40.95 6.51 40.95 9.73L40.95 9.73L40.95 13.51L39.69 13.51L39.69 9.73L39.69 9.73Q39.69 8.62 39.28 8.13L39.28 8.13L39.28 8.13Q38.86 7.63 37.90 7.63L37.90 7.63L37.90 7.63Q37.28 7.63 36.78 7.85L36.78 7.85L36.78 7.85Q36.27 8.08 36.02 8.53L36.02 8.53L36.02 13.51L34.76 13.51L34.76 6.65L35.74 6.65L35.88 7.38L35.88 7.38Q36.43 6.89 36.98 6.70L36.98 6.70L36.98 6.70Q37.53 6.51 38.15 6.51L38.15 6.51ZM44.95 13.65L44.95 13.65Q44.04 13.65 43.60 13.17L43.60 13.17L43.60 13.17Q43.16 12.70 43.16 12.01L43.16 12.01L43.16 7.63L41.99 7.63L42.10 6.65L43.16 6.65L43.16 4.96L44.42 4.83L44.42 6.65L46.23 6.65L46.23 7.63L44.42 7.63L44.42 11.24L44.42 11.24Q44.42 11.96 44.51 12.22L44.51 12.22L44.51 12.22Q44.59 12.49 44.86 12.56L44.86 12.56L44.86 12.56Q45.14 12.64 45.86 12.64L45.86 12.64L46.19 12.64L46.09 13.65L44.95 13.65ZM47.31 5.11L47.31 3.71L48.57 3.71L48.57 5.11L47.31 5.11ZM47.31 13.51L47.31 6.65L48.57 6.65L48.57 13.51L47.31 13.51Z"></path></g><defs data-v-fde0c5aa=""><linearGradient data-v-fde0c5aa="" gradientTransform="rotate(25)" id="e2377f3c-f42a-463f-9471-aa5434fb229b" x1="0%" y1="0%" x2="100%" y2="0%"><stop data-v-fde0c5aa="" offset="0%" stop-color="#000A68" stop-opacity="1"></stop><stop data-v-fde0c5aa="" offset="100%" stop-color="#00C4EE" stop-opacity="1"></stop></linearGradient></defs><g data-v-fde0c5aa="" id="c641b071-e1c8-45eb-ae4f-02e9c25b2e98" stroke="none" fill="url(#e2377f3c-f42a-463f-9471-aa5434fb229b)" transform="matrix(0.359015367836339,0,0,0.359015367836339,58.02026385595789,15.407447303210777)"><path d="M199.8 68.5V106h18.8v56.3h-150v37.5h18.8v243.8h206.3v-75H350v75h75V106h18.8V68.5h-244zm18.7 337.4h-93.8v-37.5h93.8v37.5zm0-74.9h-93.8v-37.5h93.8V331zm0-74.9h-93.8v-37.5h93.8v37.5zm75 74.9H256v-37.5h37.5V331zm0-75H256v-37.5h37.5V256zm0-75H256v-37.5h37.5V181zm93.8 150h-37.5v-37.5h37.5V331zm0-75h-37.5v-37.5h37.5V256zm0-75h-37.5v-37.5h37.5V181z"></path></g><!----></svg>