<svg width="91" height="89" fill="#E9498C" viewBox="0 0 91 89" xmlns="http://www.w3.org/2000/svg" >
  <path d="M67.497 31.958c1.695 7.139 6.905 30.791 7.497 36.008C74.994 86 55.7 89.93 40.874 88.569c-9.543-.88-19.862-3.835-29.872-6.044C5.736 81.36 1.89 79.52.795 74.724c-1.015-4.445-1.196-9.187 5.042-7.87 6.425 1.355 13.12 3.694 19.491 4.908 15.548 2.964 23.815 2.277 27.675-7.226 4.563-9.575 4.014-28.437-6.799-35.96-3.648 1.442-5.869 3.188-9.47 4.698C30.98 35.699 18 36.5 14 31.958 13 25 19.06 17.824 21.553 15.83c6.038-4.837 15.978-8.692 22.52-13.035 4.583-3.04 10.66-2.626 16.749 2.553 7.022 5.97 14.172 12.153 19.593 18.501 6.026 4.092 11.67 13.727 9.47 17.596-2.788 4.898-9.316-.327-14.513-2.959-2.246-1.136-4.352-3.536-7.926-6.552l.05.025Z"/>
</svg>
