<svg width="71" height="69" fill="currentColor" viewBox="0 0 91 89" xmlns="http://www.w3.org/2000/svg"  >
  <path fill="#E9498C" d="M23.308 31.731c-1.695 7.139-6.905 30.791-7.497 36.008 0 18.034 19.293 21.963 34.12 20.603 9.543-.88 19.861-3.835 29.872-6.044 5.266-1.165 9.11-3.005 10.207-7.801 1.015-4.445 1.195-9.187-5.042-7.87-6.425 1.355-13.12 3.694-19.492 4.908-15.547 2.964-23.814 2.277-27.674-7.226-4.563-9.575-4.014-28.437 6.798-35.96 3.65 1.442 5.87 3.188 9.47 4.698 5.756 2.425 18.735 3.226 22.735-1.316 1-6.958-5.06-14.134-7.553-16.129-6.038-4.837-15.978-8.692-22.52-13.035C42.148-.473 36.07-.06 29.982 5.12c-7.021 5.97-14.171 12.153-19.592 18.5C4.364 27.713-1.28 37.348.92 41.217c2.788 4.898 9.316-.327 14.512-2.959 2.246-1.136 4.353-3.536 7.927-6.552l-.05.025Z"/>
</svg>
